#N canvas 1136 420 638 478 12;
#X obj 278 218 dac~;
#X obj 128 54 loadbang;
#X msg 104 133 \; pd dsp 1;
#X obj 274 164 osc~;
#X msg 260 110 440;
#X connect 1 0 2 0;
#X connect 1 0 4 0;
#X connect 3 0 0 0;
#X connect 3 0 0 1;
#X connect 4 0 3 0;
