#N canvas 1190 323 638 478 12;
#X obj 128 54 loadbang;
#X msg 104 133 \; pd dsp 1;
#X obj 274 164 osc~;
#N canvas 1574 849 450 300 2d 0;
#X obj 223 118 dac~;
#X obj 168 18 inlet~;
#X obj 229 19 inlet~;
#X obj 345 20 adc~;
#X obj 236 75 *~;
#X obj 191 75 *~;
#X connect 1 0 5 0;
#X connect 2 0 4 0;
#X connect 3 0 5 1;
#X connect 3 1 4 1;
#X connect 4 0 0 1;
#X connect 5 0 0 0;
#X restore 300 213 pd 2d;
#X obj 540 149 vsl 19 162 0 1 0 0 empty empty empty 0 -9 0 12 #fcfcfc #000000 #000000 0 1;
#X msg 260 110 840;
#X obj 382 153 *~ 0.1;
#X obj 382 177 dac~;
#X connect 0 0 1 0;
#X connect 0 0 5 0;
#X connect 2 0 6 0;
#X connect 5 0 2 0;
#X connect 6 0 7 0;
#X connect 6 0 7 1;
